<svg width="56" height="52" viewBox="0 0 56 52" fill="none" xmlns="http://www.w3.org/2000/svg">
<path d="M9.57407 50.1315C9.60207 50.2155 9.61607 50.3042 9.61607 50.3975C9.61607 50.5842 9.55073 50.7382 9.42007 50.8595C9.29873 50.9808 9.15407 51.0415 8.98607 51.0415C8.8554 51.0415 8.73407 51.0042 8.62207 50.9295C8.5194 50.8455 8.4354 50.7335 8.37007 50.5935L7.50207 48.5355H3.17607L2.32207 50.6075C2.2754 50.7475 2.19607 50.8548 2.08407 50.9295C1.9814 51.0042 1.86473 51.0415 1.73407 51.0415C1.53807 51.0415 1.38873 50.9902 1.28607 50.8875C1.1834 50.7848 1.13207 50.6448 1.13207 50.4675C1.13207 50.4302 1.1414 50.3555 1.16007 50.2435L4.73007 41.5915C4.7954 41.4422 4.88407 41.3302 4.99607 41.2555C5.1174 41.1715 5.25273 41.1388 5.40207 41.1575C5.54207 41.1575 5.66807 41.1948 5.78007 41.2695C5.89207 41.3442 5.9714 41.4515 6.01807 41.5915L9.57407 50.1315ZM6.97007 47.2615L5.33207 43.3415L3.70807 47.2615H6.97007ZM14.0485 43.4955C14.7858 43.4955 15.3972 43.6122 15.8825 43.8455C16.3772 44.0788 16.6245 44.3775 16.6245 44.7415C16.6245 44.9002 16.5732 45.0448 16.4705 45.1755C16.3678 45.2968 16.2372 45.3575 16.0785 45.3575C15.9572 45.3575 15.8592 45.3388 15.7845 45.3015C15.7192 45.2642 15.6258 45.2035 15.5045 45.1195C15.4485 45.0635 15.3598 44.9982 15.2385 44.9235C15.1265 44.8675 14.9678 44.8208 14.7625 44.7835C14.5572 44.7462 14.3705 44.7275 14.2025 44.7275C13.7172 44.7275 13.2878 44.8395 12.9145 45.0635C12.5412 45.2875 12.2518 45.6002 12.0465 46.0015C11.8412 46.3935 11.7385 46.8322 11.7385 47.3175C11.7385 47.8122 11.8365 48.2555 12.0325 48.6475C12.2378 49.0395 12.5225 49.3475 12.8865 49.5715C13.2505 49.7955 13.6658 49.9075 14.1325 49.9075C14.6178 49.9075 15.0098 49.8328 15.3085 49.6835C15.3738 49.6462 15.4625 49.5855 15.5745 49.5015C15.6678 49.4268 15.7472 49.3708 15.8125 49.3335C15.8872 49.2962 15.9758 49.2775 16.0785 49.2775C16.2652 49.2775 16.4098 49.3382 16.5125 49.4595C16.6245 49.5715 16.6805 49.7208 16.6805 49.9075C16.6805 50.1035 16.5545 50.2995 16.3025 50.4955C16.0598 50.6822 15.7285 50.8362 15.3085 50.9575C14.8978 51.0788 14.4545 51.1395 13.9785 51.1395C13.2692 51.1395 12.6438 50.9762 12.1025 50.6495C11.5612 50.3135 11.1412 49.8562 10.8425 49.2775C10.5532 48.6895 10.4085 48.0362 10.4085 47.3175C10.4085 46.5988 10.5625 45.9502 10.8705 45.3715C11.1785 44.7835 11.6078 44.3262 12.1585 43.9995C12.7092 43.6635 13.3392 43.4955 14.0485 43.4955ZM21.2399 43.4955C21.9772 43.4955 22.5886 43.6122 23.0739 43.8455C23.5686 44.0788 23.8159 44.3775 23.8159 44.7415C23.8159 44.9002 23.7646 45.0448 23.6619 45.1755C23.5592 45.2968 23.4286 45.3575 23.2699 45.3575C23.1486 45.3575 23.0506 45.3388 22.9759 45.3015C22.9106 45.2642 22.8172 45.2035 22.6959 45.1195C22.6399 45.0635 22.5512 44.9982 22.4299 44.9235C22.3179 44.8675 22.1592 44.8208 21.9539 44.7835C21.7486 44.7462 21.5619 44.7275 21.3939 44.7275C20.9086 44.7275 20.4792 44.8395 20.1059 45.0635C19.7326 45.2875 19.4432 45.6002 19.2379 46.0015C19.0326 46.3935 18.9299 46.8322 18.9299 47.3175C18.9299 47.8122 19.0279 48.2555 19.2239 48.6475C19.4292 49.0395 19.7139 49.3475 20.0779 49.5715C20.4419 49.7955 20.8572 49.9075 21.3239 49.9075C21.8092 49.9075 22.2012 49.8328 22.4999 49.6835C22.5652 49.6462 22.6539 49.5855 22.7659 49.5015C22.8592 49.4268 22.9386 49.3708 23.0039 49.3335C23.0786 49.2962 23.1672 49.2775 23.2699 49.2775C23.4566 49.2775 23.6012 49.3382 23.7039 49.4595C23.8159 49.5715 23.8719 49.7208 23.8719 49.9075C23.8719 50.1035 23.7459 50.2995 23.4939 50.4955C23.2512 50.6822 22.9199 50.8362 22.4999 50.9575C22.0892 51.0788 21.6459 51.1395 21.1699 51.1395C20.4606 51.1395 19.8352 50.9762 19.2939 50.6495C18.7526 50.3135 18.3326 49.8562 18.0339 49.2775C17.7446 48.6895 17.5999 48.0362 17.5999 47.3175C17.5999 46.5988 17.7539 45.9502 18.0619 45.3715C18.3699 44.7835 18.7992 44.3262 19.3499 43.9995C19.9006 43.6635 20.5306 43.4955 21.2399 43.4955ZM32.1833 47.3315C32.1833 48.0595 32.02 48.7128 31.6933 49.2915C31.3666 49.8702 30.9186 50.3228 30.3493 50.6495C29.7893 50.9762 29.1686 51.1395 28.4873 51.1395C27.806 51.1395 27.1806 50.9762 26.6113 50.6495C26.0513 50.3228 25.608 49.8702 25.2813 49.2915C24.9546 48.7128 24.7913 48.0595 24.7913 47.3315C24.7913 46.6035 24.9546 45.9455 25.2813 45.3575C25.608 44.7695 26.0513 44.3122 26.6113 43.9855C27.1806 43.6588 27.806 43.4955 28.4873 43.4955C29.1686 43.4955 29.7893 43.6588 30.3493 43.9855C30.9186 44.3122 31.3666 44.7695 31.6933 45.3575C32.02 45.9455 32.1833 46.6035 32.1833 47.3315ZM30.8533 47.3315C30.8533 46.8275 30.746 46.3795 30.5313 45.9875C30.326 45.5862 30.0413 45.2782 29.6773 45.0635C29.3226 44.8395 28.926 44.7275 28.4873 44.7275C28.0486 44.7275 27.6473 44.8395 27.2833 45.0635C26.9286 45.2782 26.644 45.5862 26.4293 45.9875C26.224 46.3795 26.1213 46.8275 26.1213 47.3315C26.1213 47.8262 26.224 48.2695 26.4293 48.6615C26.644 49.0535 26.9286 49.3615 27.2833 49.5855C27.6473 49.8002 28.0486 49.9075 28.4873 49.9075C28.926 49.9075 29.3226 49.8002 29.6773 49.5855C30.0413 49.3615 30.326 49.0535 30.5313 48.6615C30.746 48.2695 30.8533 47.8262 30.8533 47.3315ZM39.1895 43.6635C39.3855 43.6635 39.5442 43.7288 39.6655 43.8595C39.7962 43.9902 39.8615 44.1488 39.8615 44.3355V48.0595C39.8615 49.0302 39.5909 49.7862 39.0495 50.3275C38.5175 50.8595 37.7615 51.1255 36.7815 51.1255C35.8109 51.1255 35.0595 50.8595 34.5275 50.3275C33.9955 49.7862 33.7295 49.0302 33.7295 48.0595V44.3355C33.7295 44.1488 33.7902 43.9902 33.9115 43.8595C34.0422 43.7288 34.2009 43.6635 34.3875 43.6635C34.5835 43.6635 34.7422 43.7288 34.8635 43.8595C34.9942 43.9902 35.0595 44.1488 35.0595 44.3355V48.0595C35.0595 49.2822 35.6335 49.8935 36.7815 49.8935C37.3509 49.8935 37.7849 49.7395 38.0835 49.4315C38.3822 49.1235 38.5315 48.6662 38.5315 48.0595V44.3355C38.5315 44.1488 38.5922 43.9902 38.7135 43.8595C38.8442 43.7288 39.0029 43.6635 39.1895 43.6635ZM45.5886 43.4955C47.2686 43.4955 48.1086 44.5035 48.1086 46.5195V50.3275C48.1086 50.5142 48.0433 50.6728 47.9126 50.8035C47.7913 50.9342 47.6326 50.9995 47.4366 50.9995C47.25 50.9995 47.0913 50.9342 46.9606 50.8035C46.8393 50.6728 46.7786 50.5142 46.7786 50.3275V46.5335C46.7786 45.9828 46.6526 45.5442 46.4006 45.2175C46.1486 44.8908 45.738 44.7275 45.1686 44.7275C44.7953 44.7275 44.4546 44.8115 44.1466 44.9795C43.848 45.1382 43.61 45.3575 43.4326 45.6375C43.2646 45.9082 43.1806 46.2068 43.1806 46.5335V50.3275C43.1806 50.5142 43.1153 50.6728 42.9846 50.8035C42.8633 50.9342 42.7046 50.9995 42.5086 50.9995C42.3126 50.9995 42.154 50.9388 42.0326 50.8175C41.9113 50.6868 41.8506 50.5235 41.8506 50.3275V44.3355C41.8506 44.1488 41.9113 43.9902 42.0326 43.8595C42.1633 43.7288 42.322 43.6635 42.5086 43.6635C42.7046 43.6635 42.8633 43.7288 42.9846 43.8595C43.1153 43.9902 43.1806 44.1488 43.1806 44.3355V44.8255C43.4233 44.4522 43.7593 44.1395 44.1886 43.8875C44.6273 43.6262 45.094 43.4955 45.5886 43.4955ZM52.0828 44.9655V49.1375C52.0828 49.6042 52.2928 49.8375 52.7128 49.8375C52.7781 49.8375 52.8668 49.8235 52.9788 49.7955C53.0908 49.7582 53.1794 49.7395 53.2448 49.7395C53.3661 49.7395 53.4688 49.7908 53.5528 49.8935C53.6368 49.9962 53.6788 50.1268 53.6788 50.2855C53.6788 50.4815 53.5668 50.6495 53.3428 50.7895C53.1188 50.9295 52.8668 50.9995 52.5868 50.9995C52.2788 50.9995 51.9941 50.9668 51.7328 50.9015C51.4808 50.8362 51.2521 50.6728 51.0468 50.4115C50.8508 50.1408 50.7528 49.7348 50.7528 49.1935V44.9655H49.9408C49.7634 44.9655 49.6141 44.9095 49.4928 44.7975C49.3808 44.6762 49.3248 44.5268 49.3248 44.3495C49.3248 44.1722 49.3808 44.0275 49.4928 43.9155C49.6141 43.8035 49.7634 43.7475 49.9408 43.7475H50.7528V42.5715C50.7528 42.3848 50.8134 42.2262 50.9348 42.0955C51.0654 41.9648 51.2288 41.8995 51.4248 41.8995C51.6114 41.8995 51.7654 41.9648 51.8868 42.0955C52.0174 42.2262 52.0828 42.3848 52.0828 42.5715V43.7475H53.2448C53.4221 43.7475 53.5668 43.8082 53.6788 43.9295C53.8001 44.0415 53.8608 44.1862 53.8608 44.3635C53.8608 44.5408 53.8001 44.6855 53.6788 44.7975C53.5668 44.9095 53.4221 44.9655 53.2448 44.9655H52.0828Z" fill="#7D7D7D"/>
<path d="M36.8462 30.9997V27.6663C36.8462 25.8982 36.1728 24.2025 34.9742 22.9523C33.7755 21.702 32.1498 20.9996 30.4546 20.9996H17.6715C15.9763 20.9996 14.3506 21.702 13.1519 22.9523C11.9533 24.2025 11.2799 25.8982 11.2799 27.6663V30.9997" stroke="#7D7D7D" stroke-width="2" stroke-linecap="round" stroke-linejoin="round"/>
<path d="M24.0635 14.3329C27.5935 14.3329 30.4551 11.3482 30.4551 7.66623C30.4551 3.9843 27.5935 0.999512 24.0635 0.999512C20.5336 0.999512 17.672 3.9843 17.672 7.66623C17.672 11.3482 20.5336 14.3329 24.0635 14.3329Z" stroke="#7D7D7D" stroke-width="2" stroke-linecap="round" stroke-linejoin="round"/>
<path d="M46.4361 30.9997V27.6664C46.435 26.1892 45.9636 24.7543 45.096 23.5869C44.2284 22.4194 43.0136 21.5856 41.6424 21.2163" stroke="#7D7D7D" stroke-width="2" stroke-linecap="round" stroke-linejoin="round"/>
<path d="M35.2488 1.21631C36.6236 1.58348 37.8422 2.41749 38.7124 3.58684C39.5826 4.7562 40.055 6.1944 40.055 7.67469C40.055 9.15498 39.5826 10.5932 38.7124 11.7625C37.8422 12.9319 36.6236 13.7659 35.2488 14.1331" stroke="#7D7D7D" stroke-width="2" stroke-linecap="round" stroke-linejoin="round"/>
</svg>
