<svg width="42" height="53" viewBox="0 0 42 53" fill="none" xmlns="http://www.w3.org/2000/svg">
<path d="M8.148 39.1995C8.40933 39.1995 8.61933 39.2788 8.778 39.4375C8.93667 39.5962 9.016 39.8015 9.016 40.0535V48.1455C9.016 48.3882 8.932 48.5935 8.764 48.7615C8.596 48.9202 8.38133 48.9995 8.12 48.9995C7.88667 48.9995 7.686 48.9202 7.518 48.7615C7.35 48.5935 7.266 48.3882 7.266 48.1455V44.8835H2.8V48.1455C2.8 48.3882 2.71133 48.5935 2.534 48.7615C2.35667 48.9202 2.15133 48.9995 1.918 48.9995C1.666 48.9995 1.456 48.9202 1.288 48.7615C1.12933 48.5935 1.05 48.3882 1.05 48.1455V40.0535C1.05 39.8108 1.134 39.6102 1.302 39.4515C1.47 39.2835 1.68467 39.1995 1.946 39.1995C2.17933 39.1995 2.38 39.2835 2.548 39.4515C2.716 39.6102 2.8 39.8108 2.8 40.0535V43.2735H7.266V40.0535C7.266 39.8108 7.35467 39.6102 7.532 39.4515C7.70933 39.2835 7.91467 39.1995 8.148 39.1995ZM18.1685 45.2615C18.1685 46.0082 18.0005 46.6802 17.6645 47.2775C17.3285 47.8655 16.8665 48.3228 16.2785 48.6495C15.6998 48.9762 15.0605 49.1395 14.3605 49.1395C13.6512 49.1395 13.0072 48.9762 12.4285 48.6495C11.8498 48.3228 11.3925 47.8655 11.0565 47.2775C10.7205 46.6802 10.5525 46.0082 10.5525 45.2615C10.5525 44.5148 10.7205 43.8475 11.0565 43.2595C11.3925 42.6622 11.8498 42.2002 12.4285 41.8735C13.0072 41.5375 13.6512 41.3695 14.3605 41.3695C15.0605 41.3695 15.6998 41.5375 16.2785 41.8735C16.8665 42.2002 17.3285 42.6622 17.6645 43.2595C18.0005 43.8475 18.1685 44.5148 18.1685 45.2615ZM16.4885 45.2615C16.4885 44.8042 16.3905 44.3982 16.1945 44.0435C16.0078 43.6795 15.7512 43.3995 15.4245 43.2035C15.1072 43.0075 14.7525 42.9095 14.3605 42.9095C13.9685 42.9095 13.6092 43.0075 13.2825 43.2035C12.9652 43.3995 12.7085 43.6795 12.5125 44.0435C12.3258 44.3982 12.2325 44.8042 12.2325 45.2615C12.2325 45.7188 12.3258 46.1248 12.5125 46.4795C12.7085 46.8342 12.9652 47.1095 13.2825 47.3055C13.6092 47.5015 13.9685 47.5995 14.3605 47.5995C14.7525 47.5995 15.1072 47.5015 15.4245 47.3055C15.7512 47.1095 16.0078 46.8342 16.1945 46.4795C16.3905 46.1248 16.4885 45.7188 16.4885 45.2615ZM28.2101 41.3695C29.1341 41.3695 29.7734 41.6542 30.1281 42.2235C30.4828 42.7835 30.6601 43.5628 30.6601 44.5615V48.1455C30.6601 48.3882 30.5808 48.5935 30.4221 48.7615C30.2634 48.9202 30.0628 48.9995 29.8201 48.9995C29.5774 48.9995 29.3768 48.9202 29.2181 48.7615C29.0594 48.5935 28.9801 48.3882 28.9801 48.1455V44.5615C28.9801 44.0482 28.8774 43.6468 28.6721 43.3575C28.4761 43.0588 28.1261 42.9095 27.6221 42.9095C27.0994 42.9095 26.6888 43.0682 26.3901 43.3855C26.1008 43.6935 25.9561 44.0855 25.9561 44.5615V48.1455C25.9561 48.3882 25.8768 48.5935 25.7181 48.7615C25.5594 48.9202 25.3588 48.9995 25.1161 48.9995C24.8734 48.9995 24.6728 48.9202 24.5141 48.7615C24.3554 48.5935 24.2761 48.3882 24.2761 48.1455V44.5615C24.2761 44.0482 24.1734 43.6468 23.9681 43.3575C23.7721 43.0588 23.4221 42.9095 22.9181 42.9095C22.3954 42.9095 21.9848 43.0682 21.6861 43.3855C21.3968 43.6935 21.2521 44.0855 21.2521 44.5615V48.1455C21.2521 48.3882 21.1728 48.5935 21.0141 48.7615C20.8554 48.9202 20.6548 48.9995 20.4121 48.9995C20.1694 48.9995 19.9688 48.9202 19.8101 48.7615C19.6514 48.5935 19.5721 48.3882 19.5721 48.1455V42.3635C19.5721 42.1208 19.6514 41.9202 19.8101 41.7615C19.9688 41.5935 20.1694 41.5095 20.4121 41.5095C20.6548 41.5095 20.8554 41.5935 21.0141 41.7615C21.1728 41.9202 21.2521 42.1208 21.2521 42.3635V42.5875C21.5041 42.2515 21.8214 41.9668 22.2041 41.7335C22.5961 41.4908 23.0301 41.3695 23.5061 41.3695C24.6821 41.3695 25.4334 41.8828 25.7601 42.9095C25.9748 42.5175 26.2968 42.1628 26.7261 41.8455C27.1648 41.5282 27.6594 41.3695 28.2101 41.3695ZM39.1984 45.0795C39.189 45.3035 39.1004 45.4855 38.9324 45.6255C38.7644 45.7655 38.5684 45.8355 38.3444 45.8355H33.7244C33.8364 46.3862 34.093 46.8202 34.4944 47.1375C34.8957 47.4455 35.3484 47.5995 35.8524 47.5995C36.235 47.5995 36.5337 47.5668 36.7484 47.5015C36.963 47.4268 37.131 47.3522 37.2524 47.2775C37.383 47.1935 37.4717 47.1375 37.5184 47.1095C37.6864 47.0255 37.845 46.9835 37.9944 46.9835C38.1904 46.9835 38.3584 47.0535 38.4984 47.1935C38.6384 47.3335 38.7084 47.4968 38.7084 47.6835C38.7084 47.9355 38.5777 48.1642 38.3164 48.3695C38.055 48.5842 37.705 48.7662 37.2664 48.9155C36.8277 49.0648 36.3844 49.1395 35.9364 49.1395C35.1524 49.1395 34.4664 48.9762 33.8784 48.6495C33.2997 48.3228 32.8517 47.8748 32.5344 47.3055C32.217 46.7268 32.0584 46.0782 32.0584 45.3595C32.0584 44.5568 32.2264 43.8522 32.5624 43.2455C32.8984 42.6388 33.3417 42.1768 33.8924 41.8595C34.443 41.5328 35.031 41.3695 35.6564 41.3695C36.2724 41.3695 36.851 41.5375 37.3924 41.8735C37.943 42.2095 38.3817 42.6622 38.7084 43.2315C39.035 43.8008 39.1984 44.4168 39.1984 45.0795ZM35.6564 42.9095C34.5737 42.9095 33.9344 43.4182 33.7384 44.4355H37.4064V44.3375C37.369 43.9455 37.1777 43.6095 36.8324 43.3295C36.487 43.0495 36.095 42.9095 35.6564 42.9095Z" fill="#7D7D7D"/>
<path d="M21.7099 17.812V23.437C21.7099 23.6857 21.8126 23.9241 21.9955 24.0999C22.1783 24.2757 22.4263 24.3745 22.6849 24.3745H28.5349C28.7935 24.3745 29.0415 24.2757 29.2243 24.0999C29.4072 23.9241 29.5099 23.6857 29.5099 23.437V17.812C29.5099 17.5634 29.4072 17.3249 29.2243 17.1491C29.0415 16.9733 28.7935 16.8745 28.5349 16.8745H22.6849C22.4263 16.8745 22.1783 16.9733 21.9955 17.1491C21.8126 17.3249 21.7099 17.5634 21.7099 17.812ZM23.6599 22.4995V18.7495H27.5599V22.4995H23.6599Z" fill="#29D177"/>
<path d="M10.01 -0.000488281C9.86714 -0.000436756 9.72599 0.0298214 9.59659 0.088144C9.46719 0.146467 9.35271 0.231427 9.26125 0.337012L4.38625 5.96201C4.24019 6.13042 4.16015 6.34273 4.16005 6.56201V9.37451C4.16005 11.0395 4.91275 12.5376 6.11005 13.567V29.062C6.11005 29.3107 6.21277 29.5491 6.39562 29.7249C6.57847 29.9007 6.82646 29.9995 7.08505 29.9995H32.4351C32.6936 29.9995 32.9416 29.9007 33.1245 29.7249C33.3073 29.5491 33.41 29.3107 33.41 29.062V13.567C34.6073 12.5358 35.3601 11.0395 35.3601 9.37451V6.56201V6.52826C35.3601 6.35951 35.3601 6.22451 35.1339 5.96201L30.2589 0.337012C30.1674 0.231427 30.0529 0.146467 29.9235 0.088144C29.7941 0.0298214 29.653 -0.000436756 29.51 -0.000488281H10.01ZM10.01 13.1245C8.97571 13.1245 7.98372 12.7294 7.25233 12.0262C6.52094 11.3229 6.11005 10.3691 6.11005 9.37451V7.49951H13.91V9.37451C13.91 10.3691 13.4992 11.3229 12.7678 12.0262C12.0364 12.7294 11.0444 13.1245 10.01 13.1245ZM19.76 13.1245C18.7257 13.1245 17.7337 12.7294 17.0023 12.0262C16.2709 11.3229 15.8601 10.3691 15.8601 9.37451V7.49951H23.66V9.37451C23.66 10.3691 23.2492 11.3229 22.5178 12.0262C21.7864 12.7294 20.7944 13.1245 19.76 13.1245ZM29.51 13.1245C28.4757 13.1245 27.4837 12.7294 26.7523 12.0262C26.0209 11.3229 25.6101 10.3691 25.6101 9.37451V7.49951H33.41V9.37451C33.41 10.3691 32.9992 11.3229 32.2678 12.0262C31.5364 12.7294 30.5444 13.1245 29.51 13.1245ZM10.01 28.1245H8.06005V14.6808C9.28913 15.0997 10.6286 15.1113 11.8654 14.7138C13.1021 14.3162 14.165 13.5324 14.885 12.487C15.4187 13.2603 16.1432 13.8945 16.9939 14.3329C17.8445 14.7713 18.7949 15.0004 19.76 14.9995C20.7254 15.0002 21.6759 14.7708 22.5266 14.3321C23.3772 13.8933 24.1016 13.2588 24.635 12.4851C25.3551 13.5305 26.418 14.3144 27.6547 14.7119C28.8915 15.1094 30.231 15.0978 31.4601 14.6789V28.1245H19.76V17.812C19.76 17.5634 19.6573 17.3249 19.4745 17.1491C19.2916 16.9733 19.0436 16.8745 18.785 16.8745H10.985C10.7265 16.8745 10.4785 16.9733 10.2956 17.1491C10.1128 17.3249 10.01 17.5634 10.01 17.812V28.1245ZM14.183 5.62451H7.21765L10.4664 1.87451H15.4818L14.183 5.62451ZM23.2817 5.62451H16.2383L17.537 1.87451H21.9831L23.2817 5.62451ZM25.337 5.62451L24.0384 1.87451H29.0537L32.3044 5.62451H25.337ZM11.96 28.1245V18.7495H17.8101V28.1245H11.96Z" fill="#29D177"/>
</svg>
