<svg width="32" height="53" viewBox="0 0 32 53" fill="none" xmlns="http://www.w3.org/2000/svg">
<path d="M9.98791 39.7735C10.2119 39.8948 10.3239 40.0815 10.3239 40.3335C10.3239 40.5015 10.2679 40.6555 10.1559 40.7955C10.0439 40.9448 9.88991 41.0195 9.69391 41.0195C9.56324 41.0195 9.43724 40.9868 9.31591 40.9215C8.73724 40.5948 8.11191 40.4315 7.4399 40.4315C6.7399 40.4315 6.11924 40.5855 5.57791 40.8935C5.0459 41.2015 4.63057 41.6355 4.3319 42.1955C4.03324 42.7462 3.8839 43.3808 3.8839 44.0995C3.8839 44.8742 4.0379 45.5415 4.3459 46.1015C4.6539 46.6615 5.07857 47.0908 5.6199 47.3895C6.16124 47.6788 6.7679 47.8235 7.4399 47.8235C8.13057 47.8235 8.75591 47.6555 9.31591 47.3195C9.42791 47.2635 9.54924 47.2355 9.6799 47.2355C9.88524 47.2355 10.0486 47.3148 10.1699 47.4735C10.2819 47.6135 10.3379 47.7628 10.3379 47.9215C10.3379 48.0335 10.3052 48.1408 10.2399 48.2435C10.1839 48.3368 10.1046 48.4115 10.0019 48.4675C9.63791 48.6728 9.22724 48.8362 8.76991 48.9575C8.32191 49.0788 7.87857 49.1395 7.4399 49.1395C6.53457 49.1395 5.69924 48.9388 4.93391 48.5375C4.1779 48.1362 3.57124 47.5528 3.1139 46.7875C2.6659 46.0222 2.4419 45.1262 2.4419 44.0995C2.4419 43.1568 2.65657 42.3075 3.0859 41.5515C3.52457 40.7862 4.1219 40.1888 4.8779 39.7595C5.64324 39.3208 6.49724 39.1015 7.4399 39.1015C8.34524 39.1015 9.19457 39.3255 9.98791 39.7735ZM17.7116 41.5655C17.9076 41.5655 18.0663 41.6308 18.1876 41.7615C18.3183 41.8828 18.3836 42.0462 18.3836 42.2515V48.3275C18.3836 48.5142 18.3183 48.6728 18.1876 48.8035C18.0663 48.9342 17.9076 48.9995 17.7116 48.9995C17.5156 48.9995 17.357 48.9388 17.2356 48.8175C17.1143 48.6868 17.0536 48.5235 17.0536 48.3275V47.9635C16.811 48.2902 16.4796 48.5702 16.0596 48.8035C15.6396 49.0275 15.187 49.1395 14.7016 49.1395C14.067 49.1395 13.4883 48.9762 12.9656 48.6495C12.4523 48.3228 12.0463 47.8702 11.7476 47.2915C11.4583 46.7035 11.3136 46.0455 11.3136 45.3175C11.3136 44.5895 11.4583 43.9362 11.7476 43.3575C12.0463 42.7695 12.4523 42.3122 12.9656 41.9855C13.479 41.6588 14.0436 41.4955 14.6596 41.4955C15.1543 41.4955 15.6116 41.5982 16.0316 41.8035C16.461 42.0088 16.8016 42.2702 17.0536 42.5875V42.2515C17.0536 42.0555 17.1143 41.8922 17.2356 41.7615C17.357 41.6308 17.5156 41.5655 17.7116 41.5655ZM14.8556 47.9075C15.2943 47.9075 15.6816 47.7955 16.0176 47.5715C16.363 47.3475 16.629 47.0395 16.8156 46.6475C17.0116 46.2555 17.1096 45.8122 17.1096 45.3175C17.1096 44.8322 17.0116 44.3935 16.8156 44.0015C16.629 43.6095 16.363 43.3015 16.0176 43.0775C15.6816 42.8442 15.2943 42.7275 14.8556 42.7275C14.417 42.7275 14.025 42.8395 13.6796 43.0635C13.3436 43.2875 13.0776 43.5955 12.8816 43.9875C12.695 44.3795 12.6016 44.8228 12.6016 45.3175C12.6016 45.8122 12.695 46.2555 12.8816 46.6475C13.0776 47.0395 13.3436 47.3475 13.6796 47.5715C14.025 47.7955 14.417 47.9075 14.8556 47.9075ZM24.0152 41.4955C24.2579 41.4955 24.4679 41.5608 24.6452 41.6915C24.8226 41.8128 24.9112 41.9668 24.9112 42.1535C24.9112 42.3775 24.8506 42.5502 24.7292 42.6715C24.6172 42.7835 24.4772 42.8395 24.3092 42.8395C24.2252 42.8395 24.0992 42.8115 23.9312 42.7555C23.7352 42.6902 23.5812 42.6575 23.4692 42.6575C23.1799 42.6575 22.8952 42.7602 22.6152 42.9655C22.3446 43.1615 22.1206 43.4368 21.9432 43.7915C21.7752 44.1368 21.6912 44.5242 21.6912 44.9535V48.3275C21.6912 48.5142 21.6259 48.6728 21.4952 48.8035C21.3739 48.9342 21.2152 48.9995 21.0192 48.9995C20.8232 48.9995 20.6646 48.9388 20.5432 48.8175C20.4219 48.6868 20.3612 48.5235 20.3612 48.3275V42.3355C20.3612 42.1488 20.4219 41.9902 20.5432 41.8595C20.6739 41.7288 20.8326 41.6635 21.0192 41.6635C21.2152 41.6635 21.3739 41.7288 21.4952 41.8595C21.6259 41.9902 21.6912 42.1488 21.6912 42.3355V43.0495C21.8966 42.5922 22.2046 42.2235 22.6152 41.9435C23.0259 41.6542 23.4926 41.5048 24.0152 41.4955ZM28.1325 42.9655V47.1375C28.1325 47.6042 28.3425 47.8375 28.7625 47.8375C28.8278 47.8375 28.9165 47.8235 29.0285 47.7955C29.1405 47.7582 29.2291 47.7395 29.2945 47.7395C29.4158 47.7395 29.5185 47.7908 29.6025 47.8935C29.6865 47.9962 29.7285 48.1268 29.7285 48.2855C29.7285 48.4815 29.6165 48.6495 29.3925 48.7895C29.1685 48.9295 28.9165 48.9995 28.6365 48.9995C28.3285 48.9995 28.0438 48.9668 27.7825 48.9015C27.5305 48.8362 27.3018 48.6728 27.0965 48.4115C26.9005 48.1408 26.8025 47.7348 26.8025 47.1935V42.9655H25.9905C25.8131 42.9655 25.6638 42.9095 25.5425 42.7975C25.4305 42.6762 25.3745 42.5268 25.3745 42.3495C25.3745 42.1722 25.4305 42.0275 25.5425 41.9155C25.6638 41.8035 25.8131 41.7475 25.9905 41.7475H26.8025V40.5715C26.8025 40.3848 26.8631 40.2262 26.9845 40.0955C27.1151 39.9648 27.2785 39.8995 27.4745 39.8995C27.6611 39.8995 27.8151 39.9648 27.9365 40.0955C28.0671 40.2262 28.1325 40.3848 28.1325 40.5715V41.7475H29.2945C29.4718 41.7475 29.6165 41.8082 29.7285 41.9295C29.8498 42.0415 29.9105 42.1862 29.9105 42.3635C29.9105 42.5408 29.8498 42.6855 29.7285 42.7975C29.6165 42.9095 29.4718 42.9655 29.2945 42.9655H28.1325Z" fill="#7D7D7D"/>
<path d="M16.4 14.998C16.7363 14.998 17.0094 14.6925 17.0094 14.3161C17.0094 13.9398 16.7363 13.6343 16.4 13.6343C16.0636 13.6343 15.7906 13.9398 15.7906 14.3161C15.7906 14.6925 16.0636 14.998 16.4 14.998Z" fill="#7D7D7D"/>
<path d="M29.5625 9.5444H25.9588L20.4154 1.01105C19.9174 0.0562069 18.8206 -0.283646 17.9494 0.25623C17.0662 0.805162 16.7487 2.04978 17.2395 3.03818C17.2536 3.06614 17.269 3.09305 17.2864 3.11861L21.6344 9.5444H11.1655L15.5135 3.11861C15.5307 3.09305 15.5464 3.06614 15.5604 3.03818C16.0501 2.05218 15.7361 0.806494 14.8499 0.255697C13.9806 -0.283114 12.8837 0.0564733 12.3848 1.01051L6.84112 9.5444H3.23747C1.89352 9.5444 0.799973 10.768 0.799973 12.2717C0.799973 13.4578 1.4879 14.4904 2.45695 14.8558C2.56026 14.9453 2.68927 14.9991 2.82972 14.9991C2.8578 14.9991 2.88423 15.001 2.91184 15.0052C3.17415 15.0446 3.38196 15.2673 3.42957 15.5587L5.50263 28.3202C5.66093 29.2932 6.41741 29.9995 7.30148 29.9995H25.4985C26.3825 29.9995 27.139 29.2932 27.2973 28.32L29.3704 15.5589C29.418 15.2673 29.626 15.0446 29.8893 15.0052C29.916 15.001 29.9424 14.9991 29.9702 14.9991C30.1116 14.9991 30.2416 14.9448 30.3449 14.8542C31.3147 14.4864 32 13.4556 32 12.2717C32 10.768 30.9064 9.5444 29.5625 9.5444V9.5444ZM18.2883 2.34009C18.1491 2.01755 18.2571 1.6247 18.5404 1.44891C18.8353 1.26594 19.2071 1.38392 19.3697 1.71179C19.3816 1.7363 19.3952 1.75973 19.4097 1.78211L24.4521 9.5444H23.1628L18.2883 2.34009ZM13.3902 1.78237C13.4048 1.76 13.4178 1.73683 13.43 1.71286C13.593 1.38472 13.9651 1.26647 14.2588 1.44838C14.5426 1.6247 14.6511 2.01702 14.5116 2.34009L9.6371 9.5444H8.34789L13.3902 1.78237ZM29.5625 13.6354H18.8375C18.5009 13.6354 18.2281 13.9406 18.2281 14.3173C18.2281 14.6939 18.5009 14.9922 18.8375 14.9922H28.2461C28.2142 15.0939 28.189 15.1994 28.1714 15.3081L26.0981 28.076C26.0455 28.4004 25.7932 28.6358 25.4985 28.6358H7.30148C7.00655 28.6358 6.75447 28.4004 6.70163 28.0763L4.62856 15.3147C4.61095 15.206 4.58571 15.1006 4.55382 14.9991H13.9625C14.2991 14.9991 14.5718 14.6939 14.5718 14.3173C14.5718 13.9406 14.2991 13.6354 13.9625 13.6354H3.23747C2.55978 13.6354 2.01872 13.0175 2.01872 12.2717C2.01872 11.5199 2.56549 10.9081 3.23747 10.9081H29.5625C30.2345 10.9081 30.7812 11.5199 30.7812 12.2717C30.7812 13.029 30.2275 13.6354 29.5625 13.6354Z" fill="#7D7D7D"/>
<path d="M16.3988 17.0444C15.3907 17.0444 14.5707 17.962 14.5707 19.0899V24.5446C14.5707 25.6726 15.3907 26.5902 16.3988 26.5902C17.4069 26.5902 18.2269 25.6726 18.2269 24.5446V19.0899C18.2269 17.9599 17.4088 17.0444 16.3988 17.0444V17.0444ZM17.0082 24.5446C17.0082 24.9207 16.7349 25.2265 16.3988 25.2265C16.0627 25.2265 15.7894 24.9207 15.7894 24.5446V19.0899C15.7894 18.7139 16.0627 18.4081 16.3988 18.4081C16.7351 18.4081 17.0082 18.7136 17.0082 19.0899V24.5446Z" fill="#7D7D7D"/>
<path d="M22.4936 26.5902C23.5017 26.5902 24.3217 25.6726 24.3217 24.5446V19.0899C24.3217 17.9599 23.5036 17.0444 22.4936 17.0444C21.4855 17.0444 20.6655 17.962 20.6655 19.0899V24.5446C20.6655 25.6726 21.4855 26.5902 22.4936 26.5902ZM21.8842 19.0899C21.8842 18.7139 22.1575 18.4081 22.4936 18.4081C22.8299 18.4081 23.103 18.7136 23.103 19.0899V24.5446C23.103 24.9207 22.8297 25.2265 22.4936 25.2265C22.1575 25.2265 21.8842 24.9207 21.8842 24.5446V19.0899Z" fill="#7D7D7D"/>
<path d="M10.3076 17.0444C9.29956 17.0444 8.47952 17.962 8.47952 19.0899V24.5446C8.47952 25.6726 9.29956 26.5902 10.3076 26.5902C11.3157 26.5902 12.1358 25.6726 12.1358 24.5446V19.0899C12.1358 17.9599 11.3176 17.0444 10.3076 17.0444V17.0444ZM10.917 24.5446C10.917 24.9207 10.6438 25.2265 10.3076 25.2265C9.97154 25.2265 9.69827 24.9207 9.69827 24.5446V19.0899C9.69827 18.7139 9.97154 18.4081 10.3076 18.4081C10.644 18.4081 10.917 18.7133 10.917 19.0899V24.5446Z" fill="#7D7D7D"/>
</svg>
