<svg width="66" height="56" viewBox="0 0 66 56" fill="none" xmlns="http://www.w3.org/2000/svg">
<path d="M9.95409 42.186C10.1408 42.1953 10.2994 42.2653 10.4301 42.396C10.5608 42.5173 10.6261 42.6713 10.6261 42.858V51.328C10.6261 51.5147 10.5608 51.6733 10.4301 51.804C10.3088 51.9347 10.1454 52 9.94009 52C9.73476 52 9.56676 51.9393 9.43609 51.818C9.30542 51.6873 9.24009 51.524 9.24009 51.328V44.846L6.52409 48.962C6.45876 49.046 6.37476 49.116 6.27209 49.172C6.17876 49.228 6.08076 49.2513 5.97809 49.242C5.88476 49.2513 5.78676 49.228 5.68409 49.172C5.59076 49.116 5.51142 49.046 5.44609 48.962L2.71609 44.72V51.328C2.71609 51.524 2.65542 51.6873 2.53409 51.818C2.42209 51.9393 2.26809 52 2.07209 52C1.88542 52 1.73142 51.9393 1.61009 51.818C1.49809 51.6873 1.44209 51.524 1.44209 51.328V42.858C1.44209 42.6807 1.50742 42.5267 1.63809 42.396C1.76876 42.256 1.93209 42.186 2.12809 42.186C2.24009 42.186 2.34742 42.214 2.45009 42.27C2.56209 42.326 2.65076 42.4007 2.71609 42.494L6.03409 47.52L9.39409 42.494C9.54342 42.2887 9.73009 42.186 9.95409 42.186ZM18.2458 44.594C18.4418 44.594 18.6005 44.6593 18.7218 44.79C18.8525 44.9207 18.9178 45.0793 18.9178 45.266V51.314C18.9178 52.4807 18.5958 53.3533 17.9518 53.932C17.3078 54.5107 16.4585 54.8 15.4038 54.8C15.0585 54.8 14.7178 54.7673 14.3818 54.702C14.0458 54.6367 13.7705 54.548 13.5558 54.436C13.2105 54.2773 13.0378 54.0627 13.0378 53.792C13.0378 53.7453 13.0471 53.6847 13.0658 53.61C13.1218 53.4513 13.2011 53.33 13.3038 53.246C13.4065 53.162 13.5231 53.12 13.6538 53.12C13.7285 53.12 13.7985 53.134 13.8638 53.162C14.1531 53.2927 14.4098 53.3953 14.6338 53.47C14.8578 53.5447 15.1191 53.582 15.4178 53.582C16.8645 53.582 17.5878 52.84 17.5878 51.356V51.076C17.3358 51.412 17.0091 51.6733 16.6078 51.86C16.2158 52.0467 15.7631 52.14 15.2498 52.14C14.4751 52.14 13.8685 51.8927 13.4298 51.398C13.0005 50.9033 12.7858 50.2547 12.7858 49.452V45.266C12.7858 45.07 12.8465 44.9113 12.9678 44.79C13.0891 44.6593 13.2478 44.594 13.4438 44.594C13.6398 44.594 13.7985 44.6593 13.9198 44.79C14.0505 44.9207 14.1158 45.0793 14.1158 45.266V49.102C14.1158 49.718 14.2511 50.1753 14.5218 50.474C14.7925 50.7633 15.2031 50.908 15.7538 50.908C16.2858 50.908 16.7245 50.74 17.0698 50.404C17.4151 50.068 17.5878 49.634 17.5878 49.102V45.266C17.5878 45.07 17.6485 44.9113 17.7698 44.79C17.8911 44.6593 18.0498 44.594 18.2458 44.594ZM33.848 47.1C33.848 48.0427 33.6427 48.8967 33.232 49.662C32.8307 50.4273 32.2707 51.034 31.552 51.482C30.8334 51.9207 30.0214 52.14 29.116 52.14C28.2107 52.14 27.3987 51.9207 26.68 51.482C25.9614 51.034 25.3967 50.4273 24.986 49.662C24.5847 48.8967 24.384 48.0427 24.384 47.1C24.384 46.1573 24.5847 45.3033 24.986 44.538C25.3967 43.7727 25.9614 43.1707 26.68 42.732C27.3987 42.284 28.2107 42.06 29.116 42.06C30.0214 42.06 30.8334 42.284 31.552 42.732C32.2707 43.1707 32.8307 43.7727 33.232 44.538C33.6427 45.3033 33.848 46.1573 33.848 47.1ZM32.406 47.1C32.406 46.4 32.266 45.77 31.986 45.21C31.706 44.6407 31.314 44.1973 30.81 43.88C30.3154 43.5533 29.7507 43.39 29.116 43.39C28.4814 43.39 27.912 43.5487 27.408 43.866C26.9134 44.1833 26.526 44.6267 26.246 45.196C25.966 45.756 25.826 46.3907 25.826 47.1C25.826 47.8 25.966 48.4347 26.246 49.004C26.526 49.564 26.9134 50.0073 27.408 50.334C27.912 50.6513 28.4814 50.81 29.116 50.81C29.7507 50.81 30.3154 50.6513 30.81 50.334C31.314 50.0073 31.706 49.564 31.986 49.004C32.266 48.4347 32.406 47.8 32.406 47.1ZM39.0941 44.496C39.3368 44.496 39.5468 44.5613 39.7241 44.692C39.9014 44.8133 39.9901 44.9673 39.9901 45.154C39.9901 45.378 39.9294 45.5507 39.8081 45.672C39.6961 45.784 39.5561 45.84 39.3881 45.84C39.3041 45.84 39.1781 45.812 39.0101 45.756C38.8141 45.6907 38.6601 45.658 38.5481 45.658C38.2588 45.658 37.9741 45.7607 37.6941 45.966C37.4234 46.162 37.1994 46.4373 37.0221 46.792C36.8541 47.1373 36.7701 47.5247 36.7701 47.954V51.328C36.7701 51.5147 36.7048 51.6733 36.5741 51.804C36.4528 51.9347 36.2941 52 36.0981 52C35.9021 52 35.7434 51.9393 35.6221 51.818C35.5008 51.6873 35.4401 51.524 35.4401 51.328V45.336C35.4401 45.1493 35.5008 44.9907 35.6221 44.86C35.7528 44.7293 35.9114 44.664 36.0981 44.664C36.2941 44.664 36.4528 44.7293 36.5741 44.86C36.7048 44.9907 36.7701 45.1493 36.7701 45.336V46.05C36.9754 45.5927 37.2834 45.224 37.6941 44.944C38.1048 44.6547 38.5714 44.5053 39.0941 44.496ZM46.8589 41.64C47.0549 41.64 47.2135 41.7053 47.3349 41.836C47.4655 41.9573 47.5309 42.116 47.5309 42.312V51.328C47.5309 51.5147 47.4655 51.6733 47.3349 51.804C47.2135 51.9347 47.0549 52 46.8589 52C46.6629 52 46.5042 51.9393 46.3829 51.818C46.2615 51.6873 46.2009 51.524 46.2009 51.328V50.936C45.9675 51.272 45.6362 51.5567 45.2069 51.79C44.7869 52.0233 44.3342 52.14 43.8489 52.14C43.2142 52.14 42.6402 51.9767 42.1269 51.65C41.6135 51.3233 41.2075 50.8707 40.9089 50.292C40.6102 49.704 40.4609 49.046 40.4609 48.318C40.4609 47.59 40.6055 46.9367 40.8949 46.358C41.1935 45.77 41.5995 45.3127 42.1129 44.986C42.6262 44.6593 43.1909 44.496 43.8069 44.496C44.3015 44.496 44.7589 44.5987 45.1789 44.804C45.5989 45.0093 45.9395 45.2753 46.2009 45.602V42.312C46.2009 42.116 46.2615 41.9573 46.3829 41.836C46.5042 41.7053 46.6629 41.64 46.8589 41.64ZM44.0029 50.908C44.4415 50.908 44.8289 50.796 45.1649 50.572C45.5102 50.348 45.7762 50.04 45.9629 49.648C46.1589 49.256 46.2569 48.8127 46.2569 48.318C46.2569 47.8327 46.1589 47.394 45.9629 47.002C45.7762 46.6007 45.5102 46.288 45.1649 46.064C44.8289 45.84 44.4415 45.728 44.0029 45.728C43.5642 45.728 43.1722 45.84 42.8269 46.064C42.4909 46.288 42.2249 46.6007 42.0289 47.002C41.8422 47.394 41.7489 47.8327 41.7489 48.318C41.7489 48.8127 41.8422 49.256 42.0289 49.648C42.2249 50.04 42.4909 50.348 42.8269 50.572C43.1722 50.796 43.5642 50.908 44.0029 50.908ZM55.9485 48.052C55.9391 48.22 55.8691 48.3647 55.7385 48.486C55.6078 48.598 55.4538 48.654 55.2765 48.654H50.3485C50.4138 49.3353 50.6705 49.8813 51.1185 50.292C51.5758 50.7027 52.1311 50.908 52.7845 50.908C53.2325 50.908 53.5965 50.8427 53.8765 50.712C54.1565 50.5813 54.4038 50.4133 54.6185 50.208C54.7585 50.124 54.8938 50.082 55.0245 50.082C55.1831 50.082 55.3138 50.138 55.4165 50.25C55.5285 50.362 55.5845 50.4927 55.5845 50.642C55.5845 50.838 55.4911 51.0153 55.3045 51.174C55.0338 51.4447 54.6745 51.6733 54.2265 51.86C53.7785 52.0467 53.3211 52.14 52.8545 52.14C52.0985 52.14 51.4311 51.9813 50.8525 51.664C50.2831 51.3467 49.8398 50.9033 49.5225 50.334C49.2145 49.7647 49.0605 49.1207 49.0605 48.402C49.0605 47.618 49.2191 46.932 49.5365 46.344C49.8631 45.7467 50.2878 45.2893 50.8105 44.972C51.3425 44.6547 51.9118 44.496 52.5185 44.496C53.1158 44.496 53.6758 44.65 54.1985 44.958C54.7211 45.266 55.1411 45.6907 55.4585 46.232C55.7758 46.7733 55.9391 47.38 55.9485 48.052ZM52.5185 45.728C51.9958 45.728 51.5431 45.8773 51.1605 46.176C50.7778 46.4653 50.5258 46.918 50.4045 47.534H54.5345V47.422C54.4878 46.9273 54.2638 46.5213 53.8625 46.204C53.4705 45.8867 53.0225 45.728 52.5185 45.728ZM61.1468 44.496C61.3895 44.496 61.5995 44.5613 61.7768 44.692C61.9542 44.8133 62.0428 44.9673 62.0428 45.154C62.0428 45.378 61.9822 45.5507 61.8608 45.672C61.7488 45.784 61.6088 45.84 61.4408 45.84C61.3568 45.84 61.2308 45.812 61.0628 45.756C60.8668 45.6907 60.7128 45.658 60.6008 45.658C60.3115 45.658 60.0268 45.7607 59.7468 45.966C59.4762 46.162 59.2522 46.4373 59.0748 46.792C58.9068 47.1373 58.8228 47.5247 58.8228 47.954V51.328C58.8228 51.5147 58.7575 51.6733 58.6268 51.804C58.5055 51.9347 58.3468 52 58.1508 52C57.9548 52 57.7962 51.9393 57.6748 51.818C57.5535 51.6873 57.4928 51.524 57.4928 51.328V45.336C57.4928 45.1493 57.5535 44.9907 57.6748 44.86C57.8055 44.7293 57.9642 44.664 58.1508 44.664C58.3468 44.664 58.5055 44.7293 58.6268 44.86C58.7575 44.9907 58.8228 45.1493 58.8228 45.336V46.05C59.0282 45.5927 59.3362 45.224 59.7468 44.944C60.1575 44.6547 60.6242 44.5053 61.1468 44.496Z" fill="#7D7D7D"/>
<path d="M19.0434 10.9453C18.7561 10.9453 18.4806 11.0668 18.2774 11.2832C18.0743 11.4996 17.9601 11.7931 17.9601 12.0991V27.6759C17.9601 29.8567 19.7043 31.7144 21.7518 31.7144H40.1683C42.2158 31.7144 43.9599 29.9468 43.9599 27.7661V12.0991C43.9599 11.7931 43.8458 11.4996 43.6426 11.2832C43.4395 11.0668 43.1639 10.9453 42.8766 10.9453H19.0434Z" stroke="#7D7D7D" stroke-width="2" stroke-linecap="round" stroke-linejoin="round"/>
<path d="M24.4594 10.9451V8.63739C24.4594 6.80129 25.1442 5.04039 26.3632 3.74207C27.5822 2.44374 29.2354 1.71436 30.9593 1.71436V1.71436C32.6832 1.71436 34.3365 2.44374 35.5555 3.74207C36.7745 5.04039 37.4593 6.80129 37.4593 8.63739V10.9451" stroke="#7D7D7D" stroke-width="2" stroke-linecap="round" stroke-linejoin="round"/>
<path d="M24.4594 14.4067V15.5606C24.4594 17.3967 25.1442 19.1576 26.3632 20.4559C27.5822 21.7542 29.2354 22.4836 30.9593 22.4836C32.6832 22.4836 34.3365 21.7542 35.5555 20.4559C36.7745 19.1576 37.4593 17.3967 37.4593 15.5606V14.4067" stroke="#7D7D7D" stroke-width="2" stroke-linecap="round" stroke-linejoin="round"/>
</svg>
