<svg width="25" height="24" viewBox="0 0 25 24" fill="none" xmlns="http://www.w3.org/2000/svg">
<path d="M24.0497 21.4535C23.2771 20.7647 22.6006 19.975 22.0385 19.1058C21.4249 17.9059 21.0572 16.5955 20.9568 15.2516V11.2933C20.9621 9.18237 20.1964 7.1422 18.8035 5.55606C17.4107 3.96992 15.4866 2.94699 13.3927 2.67948V1.64582C13.3927 1.36212 13.28 1.09003 13.0794 0.889422C12.8788 0.688812 12.6067 0.576111 12.323 0.576111C12.0393 0.576111 11.7672 0.688812 11.5666 0.889422C11.366 1.09003 11.2533 1.36212 11.2533 1.64582V2.6955C9.17816 2.9823 7.27729 4.01141 5.90274 5.59222C4.52819 7.17303 3.7731 9.19842 3.77732 11.2933V15.2516C3.67696 16.5955 3.30919 17.9059 2.69559 19.1058C2.14341 19.973 1.47779 20.7626 0.716421 21.4535C0.630949 21.5286 0.562448 21.621 0.515473 21.7247C0.468499 21.8283 0.444129 21.9407 0.443985 22.0545V23.1442C0.443985 23.3567 0.528405 23.5605 0.678675 23.7108C0.828945 23.8611 1.03275 23.9455 1.24527 23.9455H23.5209C23.7334 23.9455 23.9372 23.8611 24.0875 23.7108C24.2378 23.5605 24.3222 23.3567 24.3222 23.1442V22.0545C24.322 21.9407 24.2977 21.8283 24.2507 21.7247C24.2037 21.621 24.1352 21.5286 24.0497 21.4535ZM2.11065 22.3429C2.85617 21.6227 3.51257 20.8157 4.06578 19.9391C4.83871 18.49 5.28968 16.891 5.38789 15.2516V11.2933C5.35612 10.3542 5.51364 9.41832 5.85107 8.54139C6.18851 7.66446 6.69896 6.8644 7.35203 6.18885C8.00511 5.5133 8.78745 4.97608 9.65246 4.60918C10.5175 4.24228 11.4475 4.0532 12.3871 4.0532C13.3267 4.0532 14.2567 4.24228 15.1217 4.60918C15.9867 4.97608 16.7691 5.5133 17.4221 6.18885C18.0752 6.8644 18.5857 7.66446 18.9231 8.54139C19.2605 9.41832 19.4181 10.3542 19.3863 11.2933V15.2516C19.4845 16.891 19.9355 18.49 20.7084 19.9391C21.2616 20.8157 21.918 21.6227 22.6635 22.3429H2.11065Z" fill="#FF0000"/>
</svg>
